<svg xmlns="http://www.w3.org/2000/svg" viewBox="0 0 48 48"><title>03-law</title><g id="_03-law" data-name="03-law"><path d="M19,48H7a3,3,0,0,1-3-3V9a1,1,0,0,1,.293-.707l8-8A1,1,0,0,1,13,0H41a3,3,0,0,1,3,3V20H42V3a1,1,0,0,0-1-1H13.414L6,9.414V45a1,1,0,0,0,1,1H19Z"/><path d="M11,10H5V8h6a1,1,0,0,0,1-1V1h2V7A3,3,0,0,1,11,10Z"/><path d="M40,9H38V7a1,1,0,0,0-1-1H35V4h2a3,3,0,0,1,3,3Z"/><rect x="31" y="4" width="2" height="2"/><path d="M19,40a7.008,7.008,0,0,1-7-7,1,1,0,0,1,1-1H25a1,1,0,0,1,1,1A7.008,7.008,0,0,1,19,40Zm-4.9-6a5,5,0,0,0,9.8,0Z"/><path d="M24.143,33.515,19,24.944l-5.143,8.571-1.714-1.03,6-10a1.039,1.039,0,0,1,1.714,0l6,10Z"/><path d="M41,40a7.008,7.008,0,0,1-7-7,1,1,0,0,1,1-1H47a1,1,0,0,1,1,1A7.008,7.008,0,0,1,41,40Zm-4.9-6a5,5,0,0,0,9.8,0Z"/><path d="M46.143,33.515,41,24.944l-5.143,8.571-1.714-1.03,6-10a1.039,1.039,0,0,1,1.714,0l6,10Z"/><rect x="19" y="22" width="22" height="2"/><path d="M30,20a3,3,0,1,1,3-3A3,3,0,0,1,30,20Zm0-4a1,1,0,1,0,1,1A1,1,0,0,0,30,16Z"/><rect x="29" y="19" width="2" height="24"/><path d="M38,48H22a1,1,0,0,1-1-1V45a3,3,0,0,1,3-3H36a3,3,0,0,1,3,3v2A1,1,0,0,1,38,48ZM23,46H37V45a1,1,0,0,0-1-1H24a1,1,0,0,0-1,1Z"/></g></svg>